# xmcd
#
# Track frame offsets: 
#        150
#        13388
#        15473
#        26821
#        27954
#        44529
#        46524
#        64037
#        68702
#        90730
#        92823
#        97736
#        114986
#        116614
#        132372
#        134585
#        152585
#        157460
#        179375
#        181843
#        186688
#
# Disc length: 2724 seconds
#
# Revision: 0
# Processed by: cddbd v1.5.2PL0 Copyright (c) Steve Scherf et al.
# Submitted via: ExactAudioCopy v0.99pb5
#
DISCID=200aa215
DTITLE=Highlands Country - December 12, 2010
DYEAR=2010
DGENRE=Country
TTITLE0=Let It Rise (Partial)
TTITLE1=Talking
TTITLE2=Go Tell It On The Mountain
TTITLE3=Talking
TTITLE4=Hark The Herald Angels Sing
TTITLE5=Talking
TTITLE6=I Still Believe
TTITLE7=Welcome
TTITLE8=New Again
TTITLE9=Prayer
TTITLE10=Bill Announcements
TTITLE11=This Is My Life
TTITLE12=Talking
TTITLE13=Hark The Herald Angels Sing
TTITLE14=Talking
TTITLE15=I Still Believe
TTITLE16=Welcome
TTITLE17=New Again
TTITLE18=Prayer
TTITLE19=Bill Announcements
TTITLE20=This Is My Life
EXTD=
EXTT0=
EXTT1=
EXTT2=
EXTT3=
EXTT4=
EXTT5=
EXTT6=
EXTT7=
EXTT8=
EXTT9=
EXTT10=
EXTT11=
EXTT12=
EXTT13=
EXTT14=
EXTT15=
EXTT16=
EXTT17=
EXTT18=
EXTT19=
EXTT20=
PLAYORDER=
